<mxfile host="app.diagrams.net" modified="2021-05-22T13:45:35.717Z" agent="5.0 (Windows NT 10.0; Win64; x64) AppleWebKit/537.36 (KHTML, like Gecko) Chrome/90.0.4430.212 Safari/537.36" etag="PrnteKYdJMBNda8QAH0s" version="14.6.13" type="github">
  <diagram id="C5RBs43oDa-KdzZeNtuy" name="Page-1">
    <mxGraphModel dx="1422" dy="800" grid="1" gridSize="10" guides="1" tooltips="1" connect="1" arrows="1" fold="1" page="1" pageScale="1" pageWidth="827" pageHeight="1169" math="0" shadow="0">
      <root>
        <mxCell id="WIyWlLk6GJQsqaUBKTNV-0" />
        <mxCell id="WIyWlLk6GJQsqaUBKTNV-1" parent="WIyWlLk6GJQsqaUBKTNV-0" />
        <mxCell id="WIyWlLk6GJQsqaUBKTNV-2" value="" style="rounded=0;html=1;jettySize=auto;orthogonalLoop=1;fontSize=11;endArrow=block;endFill=0;endSize=8;strokeWidth=1;shadow=0;labelBackgroundColor=none;edgeStyle=orthogonalEdgeStyle;" parent="WIyWlLk6GJQsqaUBKTNV-1" source="WIyWlLk6GJQsqaUBKTNV-3" target="WIyWlLk6GJQsqaUBKTNV-6" edge="1">
          <mxGeometry relative="1" as="geometry" />
        </mxCell>
        <mxCell id="WIyWlLk6GJQsqaUBKTNV-3" value="开始" style="rounded=1;whiteSpace=wrap;html=1;fontSize=12;glass=0;strokeWidth=1;shadow=0;" parent="WIyWlLk6GJQsqaUBKTNV-1" vertex="1">
          <mxGeometry x="370" y="80" width="120" height="40" as="geometry" />
        </mxCell>
        <mxCell id="WIyWlLk6GJQsqaUBKTNV-5" value="等于0" style="edgeStyle=orthogonalEdgeStyle;rounded=0;html=1;jettySize=auto;orthogonalLoop=1;fontSize=11;endArrow=block;endFill=0;endSize=8;strokeWidth=1;shadow=0;labelBackgroundColor=none;" parent="WIyWlLk6GJQsqaUBKTNV-1" source="WIyWlLk6GJQsqaUBKTNV-6" edge="1">
          <mxGeometry x="-0.617" y="10" relative="1" as="geometry">
            <mxPoint as="offset" />
            <mxPoint x="470" y="350" as="targetPoint" />
            <Array as="points">
              <mxPoint x="630" y="210" />
              <mxPoint x="630" y="320" />
              <mxPoint x="470" y="320" />
            </Array>
          </mxGeometry>
        </mxCell>
        <mxCell id="WIyWlLk6GJQsqaUBKTNV-6" value="乘数最低位" style="rhombus;whiteSpace=wrap;html=1;shadow=0;fontFamily=Helvetica;fontSize=12;align=center;strokeWidth=1;spacing=6;spacingTop=-4;" parent="WIyWlLk6GJQsqaUBKTNV-1" vertex="1">
          <mxGeometry x="380" y="170" width="100" height="80" as="geometry" />
        </mxCell>
        <mxCell id="WIyWlLk6GJQsqaUBKTNV-11" value="被乘数寄存器左移一位" style="rounded=1;whiteSpace=wrap;html=1;fontSize=12;glass=0;strokeWidth=1;shadow=0;" parent="WIyWlLk6GJQsqaUBKTNV-1" vertex="1">
          <mxGeometry x="260" y="350" width="380" height="40" as="geometry" />
        </mxCell>
        <mxCell id="WIyWlLk6GJQsqaUBKTNV-12" value="乘积加上被乘数，结果更新到乘积寄存器" style="rounded=1;whiteSpace=wrap;html=1;fontSize=12;glass=0;strokeWidth=1;shadow=0;" parent="WIyWlLk6GJQsqaUBKTNV-1" vertex="1">
          <mxGeometry x="130" y="260" width="260" height="40" as="geometry" />
        </mxCell>
        <mxCell id="gC90-7Jxgeo8D4PstbFy-4" value="等于1" style="edgeStyle=orthogonalEdgeStyle;rounded=0;html=1;jettySize=auto;orthogonalLoop=1;fontSize=11;endArrow=block;endFill=0;endSize=8;strokeWidth=1;shadow=0;labelBackgroundColor=none;exitX=0;exitY=0.5;exitDx=0;exitDy=0;entryX=0.5;entryY=0;entryDx=0;entryDy=0;" edge="1" parent="WIyWlLk6GJQsqaUBKTNV-1" source="WIyWlLk6GJQsqaUBKTNV-6" target="WIyWlLk6GJQsqaUBKTNV-12">
          <mxGeometry x="-0.3846" y="-10" relative="1" as="geometry">
            <mxPoint as="offset" />
            <mxPoint x="490.0000000000002" y="220" as="sourcePoint" />
            <mxPoint x="320" y="280" as="targetPoint" />
          </mxGeometry>
        </mxCell>
        <mxCell id="gC90-7Jxgeo8D4PstbFy-5" value="等于1" style="edgeStyle=orthogonalEdgeStyle;rounded=0;html=1;jettySize=auto;orthogonalLoop=1;fontSize=11;endArrow=block;endFill=0;endSize=8;strokeWidth=1;shadow=0;labelBackgroundColor=none;exitX=0.5;exitY=1;exitDx=0;exitDy=0;" edge="1" parent="WIyWlLk6GJQsqaUBKTNV-1" source="WIyWlLk6GJQsqaUBKTNV-12">
          <mxGeometry x="-0.3846" y="-10" relative="1" as="geometry">
            <mxPoint as="offset" />
            <mxPoint x="200" y="400" as="sourcePoint" />
            <mxPoint x="420" y="350" as="targetPoint" />
            <Array as="points">
              <mxPoint x="260" y="320" />
              <mxPoint x="420" y="320" />
              <mxPoint x="420" y="350" />
            </Array>
          </mxGeometry>
        </mxCell>
        <mxCell id="gC90-7Jxgeo8D4PstbFy-7" value="" style="rounded=0;html=1;jettySize=auto;orthogonalLoop=1;fontSize=11;endArrow=block;endFill=0;endSize=8;strokeWidth=1;shadow=0;labelBackgroundColor=none;edgeStyle=orthogonalEdgeStyle;exitX=0.5;exitY=1;exitDx=0;exitDy=0;entryX=0.5;entryY=0;entryDx=0;entryDy=0;" edge="1" parent="WIyWlLk6GJQsqaUBKTNV-1" source="WIyWlLk6GJQsqaUBKTNV-11" target="gC90-7Jxgeo8D4PstbFy-8">
          <mxGeometry relative="1" as="geometry">
            <mxPoint x="449.66000000000025" y="410" as="sourcePoint" />
            <mxPoint x="450" y="420" as="targetPoint" />
          </mxGeometry>
        </mxCell>
        <mxCell id="gC90-7Jxgeo8D4PstbFy-8" value="乘数寄存器右移一位" style="rounded=1;whiteSpace=wrap;html=1;fontSize=12;glass=0;strokeWidth=1;shadow=0;" vertex="1" parent="WIyWlLk6GJQsqaUBKTNV-1">
          <mxGeometry x="260" y="420" width="380" height="40" as="geometry" />
        </mxCell>
        <mxCell id="gC90-7Jxgeo8D4PstbFy-10" value="" style="rounded=0;html=1;jettySize=auto;orthogonalLoop=1;fontSize=11;endArrow=block;endFill=0;endSize=8;strokeWidth=1;shadow=0;labelBackgroundColor=none;edgeStyle=orthogonalEdgeStyle;exitX=0.5;exitY=1;exitDx=0;exitDy=0;entryX=0.5;entryY=0;entryDx=0;entryDy=0;" edge="1" parent="WIyWlLk6GJQsqaUBKTNV-1">
          <mxGeometry relative="1" as="geometry">
            <mxPoint x="449.66000000000025" y="460" as="sourcePoint" />
            <mxPoint x="449.66000000000025" y="490" as="targetPoint" />
          </mxGeometry>
        </mxCell>
        <mxCell id="gC90-7Jxgeo8D4PstbFy-11" value="循环64次" style="rhombus;whiteSpace=wrap;html=1;shadow=0;fontFamily=Helvetica;fontSize=12;align=center;strokeWidth=1;spacing=6;spacingTop=-4;" vertex="1" parent="WIyWlLk6GJQsqaUBKTNV-1">
          <mxGeometry x="400" y="490" width="100" height="80" as="geometry" />
        </mxCell>
        <mxCell id="gC90-7Jxgeo8D4PstbFy-12" value="" style="rounded=0;html=1;jettySize=auto;orthogonalLoop=1;fontSize=11;endArrow=block;endFill=0;endSize=8;strokeWidth=1;shadow=0;labelBackgroundColor=none;edgeStyle=orthogonalEdgeStyle;exitX=0.5;exitY=1;exitDx=0;exitDy=0;entryX=0.5;entryY=0;entryDx=0;entryDy=0;" edge="1" parent="WIyWlLk6GJQsqaUBKTNV-1">
          <mxGeometry relative="1" as="geometry">
            <mxPoint x="449.6600000000001" y="570" as="sourcePoint" />
            <mxPoint x="449.6600000000001" y="600" as="targetPoint" />
            <Array as="points">
              <mxPoint x="450" y="580" />
              <mxPoint x="450" y="580" />
            </Array>
          </mxGeometry>
        </mxCell>
        <mxCell id="gC90-7Jxgeo8D4PstbFy-13" value="" style="rounded=0;html=1;jettySize=auto;orthogonalLoop=1;fontSize=11;endArrow=block;endFill=0;endSize=8;strokeWidth=1;shadow=0;labelBackgroundColor=none;edgeStyle=orthogonalEdgeStyle;exitX=1;exitY=0.5;exitDx=0;exitDy=0;" edge="1" parent="WIyWlLk6GJQsqaUBKTNV-1" source="gC90-7Jxgeo8D4PstbFy-11">
          <mxGeometry relative="1" as="geometry">
            <mxPoint x="580.0000000000001" y="500" as="sourcePoint" />
            <mxPoint x="430" y="140" as="targetPoint" />
            <Array as="points">
              <mxPoint x="690" y="530" />
            </Array>
          </mxGeometry>
        </mxCell>
        <mxCell id="gC90-7Jxgeo8D4PstbFy-14" value="否" style="edgeLabel;html=1;align=center;verticalAlign=middle;resizable=0;points=[];" vertex="1" connectable="0" parent="gC90-7Jxgeo8D4PstbFy-13">
          <mxGeometry x="-0.7987" y="2" relative="1" as="geometry">
            <mxPoint x="-5" y="-8" as="offset" />
          </mxGeometry>
        </mxCell>
        <mxCell id="gC90-7Jxgeo8D4PstbFy-15" value="是" style="edgeLabel;html=1;align=center;verticalAlign=middle;resizable=0;points=[];" vertex="1" connectable="0" parent="WIyWlLk6GJQsqaUBKTNV-1">
          <mxGeometry x="599.9975862068968" y="530" as="geometry">
            <mxPoint x="-134" y="50" as="offset" />
          </mxGeometry>
        </mxCell>
        <mxCell id="gC90-7Jxgeo8D4PstbFy-16" value="结束" style="rounded=1;whiteSpace=wrap;html=1;fontSize=12;glass=0;strokeWidth=1;shadow=0;" vertex="1" parent="WIyWlLk6GJQsqaUBKTNV-1">
          <mxGeometry x="390" y="600" width="120" height="40" as="geometry" />
        </mxCell>
        <mxCell id="gC90-7Jxgeo8D4PstbFy-18" value="开始" style="rounded=1;whiteSpace=wrap;html=1;fontSize=12;glass=0;strokeWidth=1;shadow=0;" vertex="1" parent="WIyWlLk6GJQsqaUBKTNV-1">
          <mxGeometry x="390" y="660" width="120" height="40" as="geometry" />
        </mxCell>
        <mxCell id="gC90-7Jxgeo8D4PstbFy-19" value="大于等于0" style="edgeStyle=orthogonalEdgeStyle;rounded=0;html=1;jettySize=auto;orthogonalLoop=1;fontSize=11;endArrow=block;endFill=0;endSize=8;strokeWidth=1;shadow=0;labelBackgroundColor=none;entryX=0.5;entryY=0;entryDx=0;entryDy=0;" edge="1" parent="WIyWlLk6GJQsqaUBKTNV-1" target="gC90-7Jxgeo8D4PstbFy-38">
          <mxGeometry x="-0.617" y="10" relative="1" as="geometry">
            <mxPoint as="offset" />
            <mxPoint x="630" y="897" as="targetPoint" />
            <Array as="points">
              <mxPoint x="605" y="850" />
            </Array>
            <mxPoint x="500.0000000000002" y="850" as="sourcePoint" />
          </mxGeometry>
        </mxCell>
        <mxCell id="gC90-7Jxgeo8D4PstbFy-20" value="余数" style="rhombus;whiteSpace=wrap;html=1;shadow=0;fontFamily=Helvetica;fontSize=12;align=center;strokeWidth=1;spacing=6;spacingTop=-4;" vertex="1" parent="WIyWlLk6GJQsqaUBKTNV-1">
          <mxGeometry x="400" y="810" width="100" height="80" as="geometry" />
        </mxCell>
        <mxCell id="gC90-7Jxgeo8D4PstbFy-21" value="除数寄存器右移一位" style="rounded=1;whiteSpace=wrap;html=1;fontSize=12;glass=0;strokeWidth=1;shadow=0;" vertex="1" parent="WIyWlLk6GJQsqaUBKTNV-1">
          <mxGeometry x="280" y="990" width="380" height="40" as="geometry" />
        </mxCell>
        <mxCell id="gC90-7Jxgeo8D4PstbFy-22" value="余数寄存器加上除数寄存器恢复原值，商寄存器左移，最低位填充0" style="rounded=1;whiteSpace=wrap;html=1;fontSize=12;glass=0;strokeWidth=1;shadow=0;" vertex="1" parent="WIyWlLk6GJQsqaUBKTNV-1">
          <mxGeometry x="150" y="900" width="260" height="40" as="geometry" />
        </mxCell>
        <mxCell id="gC90-7Jxgeo8D4PstbFy-23" value="小于0" style="edgeStyle=orthogonalEdgeStyle;rounded=0;html=1;jettySize=auto;orthogonalLoop=1;fontSize=11;endArrow=block;endFill=0;endSize=8;strokeWidth=1;shadow=0;labelBackgroundColor=none;exitX=0;exitY=0.5;exitDx=0;exitDy=0;entryX=0.5;entryY=0;entryDx=0;entryDy=0;" edge="1" parent="WIyWlLk6GJQsqaUBKTNV-1" source="gC90-7Jxgeo8D4PstbFy-20" target="gC90-7Jxgeo8D4PstbFy-22">
          <mxGeometry x="-0.3846" y="-10" relative="1" as="geometry">
            <mxPoint as="offset" />
            <mxPoint x="510.0000000000002" y="860" as="sourcePoint" />
            <mxPoint x="340" y="920" as="targetPoint" />
          </mxGeometry>
        </mxCell>
        <mxCell id="gC90-7Jxgeo8D4PstbFy-24" value="" style="edgeStyle=orthogonalEdgeStyle;rounded=0;html=1;jettySize=auto;orthogonalLoop=1;fontSize=11;endArrow=block;endFill=0;endSize=8;strokeWidth=1;shadow=0;labelBackgroundColor=none;exitX=0.5;exitY=1;exitDx=0;exitDy=0;" edge="1" parent="WIyWlLk6GJQsqaUBKTNV-1" source="gC90-7Jxgeo8D4PstbFy-22">
          <mxGeometry x="-0.3846" y="-10" relative="1" as="geometry">
            <mxPoint as="offset" />
            <mxPoint x="220" y="1040" as="sourcePoint" />
            <mxPoint x="440.0000000000002" y="990" as="targetPoint" />
            <Array as="points">
              <mxPoint x="280" y="960" />
              <mxPoint x="440" y="960" />
              <mxPoint x="440" y="990" />
            </Array>
          </mxGeometry>
        </mxCell>
        <mxCell id="gC90-7Jxgeo8D4PstbFy-25" value="" style="rounded=0;html=1;jettySize=auto;orthogonalLoop=1;fontSize=11;endArrow=block;endFill=0;endSize=8;strokeWidth=1;shadow=0;labelBackgroundColor=none;edgeStyle=orthogonalEdgeStyle;exitX=0.5;exitY=1;exitDx=0;exitDy=0;entryX=0.5;entryY=0;entryDx=0;entryDy=0;" edge="1" parent="WIyWlLk6GJQsqaUBKTNV-1" source="gC90-7Jxgeo8D4PstbFy-21" target="gC90-7Jxgeo8D4PstbFy-28">
          <mxGeometry relative="1" as="geometry">
            <mxPoint x="469.66000000000025" y="1050" as="sourcePoint" />
            <mxPoint x="470.0000000000002" y="1060" as="targetPoint" />
          </mxGeometry>
        </mxCell>
        <mxCell id="gC90-7Jxgeo8D4PstbFy-28" value="循环64次" style="rhombus;whiteSpace=wrap;html=1;shadow=0;fontFamily=Helvetica;fontSize=12;align=center;strokeWidth=1;spacing=6;spacingTop=-4;" vertex="1" parent="WIyWlLk6GJQsqaUBKTNV-1">
          <mxGeometry x="420" y="1080" width="100" height="80" as="geometry" />
        </mxCell>
        <mxCell id="gC90-7Jxgeo8D4PstbFy-29" value="" style="rounded=0;html=1;jettySize=auto;orthogonalLoop=1;fontSize=11;endArrow=block;endFill=0;endSize=8;strokeWidth=1;shadow=0;labelBackgroundColor=none;edgeStyle=orthogonalEdgeStyle;exitX=0.5;exitY=1;exitDx=0;exitDy=0;entryX=0.5;entryY=0;entryDx=0;entryDy=0;" edge="1" parent="WIyWlLk6GJQsqaUBKTNV-1" source="gC90-7Jxgeo8D4PstbFy-28" target="gC90-7Jxgeo8D4PstbFy-33">
          <mxGeometry relative="1" as="geometry">
            <mxPoint x="469.6600000000001" y="1210" as="sourcePoint" />
            <mxPoint x="469.6600000000001" y="1240" as="targetPoint" />
            <Array as="points" />
          </mxGeometry>
        </mxCell>
        <mxCell id="gC90-7Jxgeo8D4PstbFy-30" value="" style="rounded=0;html=1;jettySize=auto;orthogonalLoop=1;fontSize=11;endArrow=block;endFill=0;endSize=8;strokeWidth=1;shadow=0;labelBackgroundColor=none;edgeStyle=orthogonalEdgeStyle;exitX=1;exitY=0.5;exitDx=0;exitDy=0;" edge="1" parent="WIyWlLk6GJQsqaUBKTNV-1" source="gC90-7Jxgeo8D4PstbFy-28">
          <mxGeometry relative="1" as="geometry">
            <mxPoint x="600.0000000000001" y="1080" as="sourcePoint" />
            <mxPoint x="450.0000000000002" y="720" as="targetPoint" />
            <Array as="points">
              <mxPoint x="710" y="1120" />
              <mxPoint x="710" y="720" />
            </Array>
          </mxGeometry>
        </mxCell>
        <mxCell id="gC90-7Jxgeo8D4PstbFy-31" value="否" style="edgeLabel;html=1;align=center;verticalAlign=middle;resizable=0;points=[];" vertex="1" connectable="0" parent="gC90-7Jxgeo8D4PstbFy-30">
          <mxGeometry x="-0.7987" y="2" relative="1" as="geometry">
            <mxPoint x="-5" y="-8" as="offset" />
          </mxGeometry>
        </mxCell>
        <mxCell id="gC90-7Jxgeo8D4PstbFy-32" value="是" style="edgeLabel;html=1;align=center;verticalAlign=middle;resizable=0;points=[];" vertex="1" connectable="0" parent="WIyWlLk6GJQsqaUBKTNV-1">
          <mxGeometry x="619.9975862068968" y="1140" as="geometry">
            <mxPoint x="-134" y="50" as="offset" />
          </mxGeometry>
        </mxCell>
        <mxCell id="gC90-7Jxgeo8D4PstbFy-33" value="结束" style="rounded=1;whiteSpace=wrap;html=1;fontSize=12;glass=0;strokeWidth=1;shadow=0;" vertex="1" parent="WIyWlLk6GJQsqaUBKTNV-1">
          <mxGeometry x="410" y="1200" width="120" height="40" as="geometry" />
        </mxCell>
        <mxCell id="gC90-7Jxgeo8D4PstbFy-34" value="" style="rounded=0;html=1;jettySize=auto;orthogonalLoop=1;fontSize=11;endArrow=block;endFill=0;endSize=8;strokeWidth=1;shadow=0;labelBackgroundColor=none;edgeStyle=orthogonalEdgeStyle;exitX=0.5;exitY=1;exitDx=0;exitDy=0;" edge="1" parent="WIyWlLk6GJQsqaUBKTNV-1" source="gC90-7Jxgeo8D4PstbFy-18">
          <mxGeometry relative="1" as="geometry">
            <mxPoint x="449.6600000000001" y="720" as="sourcePoint" />
            <mxPoint x="450" y="740" as="targetPoint" />
            <Array as="points" />
          </mxGeometry>
        </mxCell>
        <mxCell id="gC90-7Jxgeo8D4PstbFy-35" value="余数寄存器减去除数寄存器，结果更新到余数寄存器中" style="rounded=1;whiteSpace=wrap;html=1;fontSize=12;glass=0;strokeWidth=1;shadow=0;" vertex="1" parent="WIyWlLk6GJQsqaUBKTNV-1">
          <mxGeometry x="300" y="740" width="320" height="40" as="geometry" />
        </mxCell>
        <mxCell id="gC90-7Jxgeo8D4PstbFy-36" value="" style="rounded=0;html=1;jettySize=auto;orthogonalLoop=1;fontSize=11;endArrow=block;endFill=0;endSize=8;strokeWidth=1;shadow=0;labelBackgroundColor=none;edgeStyle=orthogonalEdgeStyle;exitX=0.47;exitY=1.017;exitDx=0;exitDy=0;exitPerimeter=0;" edge="1" parent="WIyWlLk6GJQsqaUBKTNV-1" source="gC90-7Jxgeo8D4PstbFy-35" target="gC90-7Jxgeo8D4PstbFy-20">
          <mxGeometry relative="1" as="geometry">
            <mxPoint x="510.0000000000002" y="780" as="sourcePoint" />
            <mxPoint x="510.0000000000002" y="820" as="targetPoint" />
            <Array as="points" />
          </mxGeometry>
        </mxCell>
        <mxCell id="gC90-7Jxgeo8D4PstbFy-38" value="商寄存器左移，最低位填充1" style="rounded=1;whiteSpace=wrap;html=1;fontSize=12;glass=0;strokeWidth=1;shadow=0;" vertex="1" parent="WIyWlLk6GJQsqaUBKTNV-1">
          <mxGeometry x="510" y="900" width="190" height="40" as="geometry" />
        </mxCell>
        <mxCell id="gC90-7Jxgeo8D4PstbFy-39" value="" style="edgeStyle=orthogonalEdgeStyle;rounded=0;html=1;jettySize=auto;orthogonalLoop=1;fontSize=11;endArrow=block;endFill=0;endSize=8;strokeWidth=1;shadow=0;labelBackgroundColor=none;exitX=0.5;exitY=1;exitDx=0;exitDy=0;" edge="1" parent="WIyWlLk6GJQsqaUBKTNV-1" source="gC90-7Jxgeo8D4PstbFy-38">
          <mxGeometry x="-0.3846" y="-10" relative="1" as="geometry">
            <mxPoint as="offset" />
            <mxPoint x="530.0000000000002" y="950" as="sourcePoint" />
            <mxPoint x="500" y="990" as="targetPoint" />
            <Array as="points">
              <mxPoint x="605" y="960" />
              <mxPoint x="500" y="960" />
              <mxPoint x="500" y="990" />
            </Array>
          </mxGeometry>
        </mxCell>
      </root>
    </mxGraphModel>
  </diagram>
</mxfile>
